<svg version="1.2" baseProfile="tiny-ps" xmlns="http://www.w3.org/2000/svg" viewBox="0 0 92 27" width="92" height="27">
	<title>login</title>
	<style>
		tspan { white-space:pre }
		.shp0 { fill: #a9d0ff } 
		.shp1 { fill: #316edb } 
		.shp2 { fill: #2033a0 } 
	</style>
	<g id="login">
		<g id="Group 45">
			<g id="Group 3640">
				<g id="Group 3638">
					<path id="Path 3059" class="shp0" d="M3.27 23.45L2.06 22.21L8.57 15.84L12.71 20.06L31.31 1.59L32.53 2.82L12.7 22.52L8.54 18.29L3.27 23.45Z" />
				</g>
				<path id="Ellipse 674" class="shp1" d="M2.66 24.52C1.73 24.52 0.97 23.76 0.97 22.83C0.97 21.89 1.73 21.13 2.66 21.13C3.6 21.13 4.36 21.89 4.36 22.83C4.36 23.76 3.6 24.52 2.66 24.52Z" />
				<path id="Ellipse 675" class="shp1" d="M8.57 19.02C7.64 19.02 6.88 18.27 6.88 17.33C6.88 16.4 7.64 15.64 8.57 15.64C9.51 15.64 10.27 16.4 10.27 17.33C10.27 18.27 9.51 19.02 8.57 19.02Z" />
				<path id="Ellipse 676" class="shp1" d="M12.7 22.83C11.77 22.83 11.01 22.07 11.01 21.13C11.01 20.2 11.77 19.44 12.7 19.44C13.64 19.44 14.4 20.2 14.4 21.13C14.4 22.07 13.64 22.83 12.7 22.83Z" />
				<path id="Path 3060" class="shp1" d="M29.43 1.5L32.55 4.7L33.62 0.55L29.43 1.5Z" />
				<g id="Group 3639">
					<path id="Rectangle 3265" class="shp2" d="M21.08 1.25L23.88 1.25L23.88 9.7L21.08 9.7L21.08 1.25Z" />
					<path id="Rectangle 3266" class="shp1" d="M17.63 3.55L20.43 3.55L20.43 9.7L17.63 9.7L17.63 3.55Z" />
					<path id="Rectangle 3267" class="shp0" d="M14.17 5.31L16.98 5.31L16.98 9.7L14.17 9.7L14.17 5.31Z" />
				</g>
				<path id="Path 3061" class="shp2" d="M7.43 9.57L30.63 9.57L21.07 20.28L20.58 26.3L17.74 26.3L17.17 20.37L7.43 9.57Z" />
				<path id="Path 3062" class="shp1" d="M11.37 9.57L18.14 20.15L18.54 26.3L19.03 26.3L19.03 20.06L17.04 9.57L11.37 9.57Z" />
			</g>
			<g id="Group 3641">
				<path id="Path 3063" class="shp1" d="M40.23 21.88L40.23 22.95L42.28 22.95L42.28 24.16L40.23 24.16L40.23 26.19L38.97 26.19L38.97 20.66L42.32 20.66L42.32 21.88L40.23 21.88Z" />
				<path id="Path 3064" class="shp1" d="M45.17 24.41L45.17 20.66L46.43 20.66L46.43 24.3C46.43 24.72 46.63 25.07 47.3 25.07C47.97 25.07 48.17 24.72 48.17 24.3L48.17 20.66L49.43 20.66L49.43 24.41C49.43 25.59 48.52 26.3 47.3 26.3C46.08 26.3 45.17 25.59 45.17 24.41Z" />
				<path id="Path 3065" class="shp1" d="M56.82 20.66L56.82 26.19L55.87 26.19L53.74 23.19L53.74 26.19L52.48 26.19L52.48 20.66L53.42 20.66L55.56 23.67L55.56 20.66L56.82 20.66Z" />
				<path id="Path 3066" class="shp1" d="M64.25 20.66L64.25 26.19L63.3 26.19L61.17 23.19L61.17 26.19L59.9 26.19L59.9 20.66L60.85 20.66L62.98 23.67L62.98 20.66L64.25 20.66Z" />
				<path id="Path 3067" class="shp1" d="M70.8 24.98L70.8 26.19L67.33 26.19L67.33 20.66L70.77 20.66L70.77 21.88L68.59 21.88L68.59 22.8L70.57 22.8L70.57 24L68.59 24L68.59 24.98L70.8 24.98Z" />
				<path id="Path 3068" class="shp1" d="M76.89 24.98L76.89 26.19L73.65 26.19L73.65 20.66L74.91 20.66L74.91 24.98L76.89 24.98Z" />
			</g>
			<g id="Group 3642">
				<path id="Path 3069" class="shp2" d="M37.48 11.28L40.44 9.57C40.92 10.72 41.75 11.36 43.1 11.36C44.31 11.36 44.68 10.92 44.68 10.45C44.68 9.68 43.79 9.45 42.08 8.97C39.95 8.35 38.06 7.27 38.06 4.74C38.06 2.21 40.13 0.55 42.75 0.55C44.99 0.55 46.82 1.61 47.77 3.64L44.87 5.34C44.45 4.33 43.76 3.83 42.77 3.83C41.92 3.83 41.52 4.24 41.52 4.72C41.52 5.32 42 5.65 43.83 6.19C45.92 6.81 48.14 7.58 48.14 10.41C48.14 13.1 46.05 14.64 43 14.64C40.07 14.64 38.2 13.27 37.48 11.28Z" />
				<path id="Path 3070" fill-rule="evenodd" class="shp2" d="M56.96 12.4L52.46 12.4L51.88 14.35L48.14 14.35L52.59 0.84L56.8 0.84L61.26 14.35L57.54 14.35L56.96 12.4ZM56.07 9.43L54.7 4.84L53.35 9.43L56.07 9.43Z" />
				<path id="Path 3071" class="shp2" d="M70.35 11.01L70.35 14.35L62.24 14.35L62.24 0.84L65.7 0.84L65.7 11.01L70.35 11.01Z" />
				<path id="Path 3072" class="shp2" d="M80.29 11.11L80.29 14.35L71.6 14.35L71.6 0.84L80.19 0.84L80.19 4.06L75.06 4.06L75.06 5.94L79.71 5.94L79.71 9.12L75.06 9.12L75.06 11.11L80.29 11.11Z" />
				<path id="Path 3073" class="shp2" d="M81.22 11.28L84.17 9.57C84.65 10.72 85.48 11.36 86.83 11.36C88.05 11.36 88.41 10.92 88.41 10.45C88.41 9.68 87.53 9.45 85.81 8.97C83.69 8.35 81.79 7.27 81.79 4.74C81.79 2.21 83.86 0.55 86.48 0.55C88.72 0.55 90.56 1.61 91.5 3.64L88.61 5.34C88.18 4.33 87.49 3.83 86.5 3.83C85.65 3.83 85.25 4.24 85.25 4.72C85.25 5.32 85.73 5.65 87.57 6.19C89.65 6.81 91.87 7.58 91.87 10.41C91.87 13.1 89.79 14.64 86.74 14.64C83.8 14.64 81.93 13.27 81.22 11.28Z" />
			</g>
		</g>
	</g>
</svg>