<svg version="1.2" baseProfile="tiny-ps" xmlns="http://www.w3.org/2000/svg" viewBox="0 0 11 21" width="11" height="21">
	<title>login</title>
	<style>
		tspan { white-space:pre }
		.shp0 { fill: #225dd9 } 
	</style>
	<g id="login">
		<g id="facebook-logo">
			<path id="Path 41" class="shp0" d="M10.08 0.99L7.6 0.98C4.81 0.98 3.02 2.83 3.02 5.69L3.02 7.85L0.53 7.85C0.31 7.85 0.14 8.03 0.14 8.24L0.14 11.38C0.14 11.6 0.31 11.77 0.53 11.77L3.02 11.77L3.02 19.7C3.02 19.91 3.19 20.09 3.41 20.09L6.66 20.09C6.87 20.09 7.05 19.91 7.05 19.7L7.05 11.77L9.96 11.77C10.17 11.77 10.35 11.6 10.35 11.38L10.35 8.24C10.35 8.14 10.31 8.04 10.23 7.97C10.16 7.89 10.06 7.85 9.96 7.85L7.05 7.85L7.05 6.02C7.05 5.13 7.26 4.68 8.41 4.68L10.07 4.68C10.29 4.68 10.46 4.51 10.46 4.29L10.46 1.38C10.46 1.16 10.29 0.99 10.08 0.99Z" />
		</g>
	</g>
</svg>