<svg version="1.2" baseProfile="tiny-ps" xmlns="http://www.w3.org/2000/svg" viewBox="0 0 20 18" width="20" height="18">
	<title>login</title>
	<style>
		tspan { white-space:pre }
		.shp0 { fill: #225dd9 } 
	</style>
	<g id="login">
		<g id="telephone-handle-silhouette">
			<path id="Path 88" class="shp0" d="M19.03 13.64C18.98 13.49 18.65 13.28 18.05 13C17.89 12.91 17.66 12.79 17.36 12.64C17.05 12.49 16.78 12.35 16.54 12.22C16.29 12.09 16.06 11.97 15.85 11.85C15.81 11.83 15.7 11.76 15.52 11.64C15.34 11.53 15.19 11.44 15.06 11.38C14.94 11.33 14.82 11.3 14.7 11.3C14.52 11.3 14.31 11.41 14.05 11.64C13.79 11.87 13.56 12.12 13.34 12.38C13.13 12.65 12.9 12.9 12.66 13.13C12.42 13.36 12.22 13.47 12.07 13.47C11.99 13.47 11.89 13.45 11.77 13.41C11.66 13.37 11.57 13.34 11.51 13.31C11.45 13.28 11.35 13.22 11.2 13.14C11.05 13.06 10.97 13.01 10.95 13C9.78 12.39 8.77 11.7 7.92 10.92C7.08 10.13 6.33 9.19 5.68 8.1C5.67 8.08 5.62 8.01 5.53 7.87C5.44 7.74 5.38 7.64 5.35 7.58C5.32 7.53 5.28 7.45 5.24 7.34C5.2 7.23 5.17 7.14 5.17 7.07C5.17 6.93 5.3 6.74 5.54 6.52C5.79 6.29 6.05 6.08 6.34 5.88C6.63 5.68 6.9 5.46 7.14 5.22C7.39 4.98 7.51 4.78 7.51 4.63C7.51 4.51 7.48 4.4 7.42 4.28C7.36 4.17 7.27 4.03 7.14 3.86C7.02 3.69 6.94 3.59 6.92 3.56C6.79 3.36 6.65 3.15 6.52 2.92C6.38 2.69 6.23 2.44 6.06 2.16C5.9 1.88 5.77 1.66 5.68 1.51C5.38 0.95 5.15 0.65 4.99 0.6C4.93 0.57 4.84 0.56 4.72 0.56C4.49 0.56 4.19 0.6 3.81 0.68C3.44 0.76 3.14 0.85 2.93 0.93C2.5 1.1 2.04 1.59 1.56 2.4C1.12 3.15 0.9 3.89 0.9 4.62C0.9 4.84 0.92 5.05 0.95 5.25C0.98 5.46 1.03 5.69 1.11 5.94C1.19 6.2 1.25 6.39 1.3 6.51C1.34 6.64 1.43 6.86 1.56 7.18C1.69 7.5 1.77 7.69 1.79 7.76C2.09 8.55 2.45 9.25 2.86 9.86C3.54 10.88 4.47 11.94 5.64 13.03C6.82 14.12 7.96 14.98 9.06 15.61C9.72 16 10.47 16.33 11.32 16.61C11.39 16.63 11.6 16.7 11.95 16.82C12.29 16.94 12.53 17.03 12.66 17.07C12.8 17.11 13 17.17 13.28 17.24C13.55 17.32 13.8 17.37 14.02 17.39C14.24 17.42 14.46 17.44 14.7 17.44C15.49 17.44 16.29 17.23 17.1 16.83C17.97 16.38 18.49 15.95 18.67 15.55C18.77 15.35 18.86 15.08 18.94 14.73C19.03 14.39 19.07 14.1 19.07 13.89C19.07 13.78 19.06 13.69 19.03 13.64Z" />
		</g>
	</g>
</svg>